<?xml version="1.0" encoding="UTF-8" standalone="no"?>
<!DOCTYPE svg PUBLIC "-//W3C//DTD SVG 1.1//EN" "http://www.w3.org/Graphics/SVG/1.1/DTD/svg11.dtd">
<svg width="100%" height="100%" viewBox="0 0 193 143" version="1.1" xmlns="http://www.w3.org/2000/svg" xmlns:xlink="http://www.w3.org/1999/xlink" xml:space="preserve" xmlns:serif="http://www.serif.com/" style="fill-rule:evenodd;clip-rule:evenodd;stroke-linejoin:round;stroke-miterlimit:2;">
    <g transform="matrix(0.96346,0,0,0.96346,-48.808,-41.6256)">
        <g transform="matrix(0.339994,0,0,0.339994,82.7419,168.538)">
            <path d="M0,8.265C-16.132,14.315 -34.966,11.066 -52.061,4.78L-94.363,67.731L7.195,67.731C21.763,67.731 34.541,58.069 38.536,44.06C47.908,11.194 66.542,-28.815 103.269,-59.466C103.246,-59.456 103.225,-59.446 103.201,-59.436C38.246,-31.235 42.039,-7.5 0,8.265Z" style="fill:rgb(46,84,88);fill-rule:nonzero;"/>
        </g>
        <g transform="matrix(0.339994,0,0,0.339994,228.111,173.396)">
            <path d="M0,-42.607C-71.932,-47.921 -147.997,-96.049 -147.997,-96.049C-147.997,-96.049 -87.336,-57.781 -66.022,28.515C-62.414,43.119 -49.399,53.442 -34.356,53.442L64.544,53.442L0,-42.607Z" style="fill:rgb(46,84,88);fill-rule:nonzero;"/>
        </g>
        <g transform="matrix(0.339994,0,0,0.339994,170.393,173.405)">
            <path d="M0,-295.257C-23.627,-286.33 -47.652,-275.322 -67.311,-262.225C-96.637,-242.687 -133.014,-232.821 -163.16,-227.843L-309.862,-9.534C-292.767,-3.248 -273.933,0 -257.801,-6.049C-215.762,-21.814 -219.555,-45.55 -154.6,-73.75C-154.577,-73.76 -154.555,-73.77 -154.532,-73.781C-148.505,-78.81 -142.021,-83.603 -134.977,-88.054C-134.977,-88.054 -74.218,-125.944 -63.379,-206.021C-63.379,-206.021 7.561,-139.644 -13.13,-26.651C-13.13,-26.651 33.012,-45.962 21.764,-96.074C21.764,-96.074 97.83,-47.946 169.762,-42.633L0,-295.257Z" style="fill:rgb(78,115,103);fill-rule:nonzero;"/>
        </g>
        <g transform="matrix(-0.189634,-0.282196,-0.282196,0.189634,130.047,44.6277)">
            <path d="M-135.498,-51.917L-29.844,-51.917L-100.448,121.107C-113.13,93.309 -125.231,57.614 -125.371,22.375C-125.466,-1.247 -129.729,-27.327 -135.498,-51.917Z" style="fill:rgb(127,166,140);fill-rule:nonzero;"/>
        </g>
    </g>
</svg>
